<svg id="Layer_1" data-name="Layer 1" xmlns="http://www.w3.org/2000/svg" viewBox="0 0 1000 1000"><title>music note</title><path d="M966.72,392.32a47.3,47.3,0,0,0-2.85-11.79,82,82,0,0,0-12.37-20.69,107.61,107.61,0,0,0-17.37-16.76c-12.73-9.9-27.16-17.35-42-23.25L881,315.52l-2.8-1.08c-.94-.34-1.9-.62-2.85-.93l-5.71-1.83-5.71-1.83c-1.9-.62-3.81-1.23-5.75-1.69l-11.63-3c-3.86-1.11-7.83-1.67-11.75-2.48l-5.9-1.13-3-.57-3-.41L811,299c-2-.31-4-.48-6-.63l-6-.49c-8-.83-16-.87-24-1.16-4-.07-8,.09-12,.13l-6,.1c-2,.06-4,.23-6,.33L739,298l-11.94,1.26c-2,.22-4,.41-6,.66l-5.93.87c-4,.59-7.92,1.12-11.87,1.77-7.85,1.47-15.75,2.74-23.53,4.53-3.9.86-7.82,1.63-11.69,2.57l-11.62,2.85c-30.93,7.79-61.15,17.83-90.91,28.73-27.58,10.11-54.83,20.86-82,31.44l-.56-.43c-8.79-6.55-16.59-13.24-18.2-24.88-.11-.84-2.08-1.89-3.22-1.93-.7,0-1.9,1.59-2.1,2.62a15.86,15.86,0,0,0,.31,4.52l3,28.14C452.9,384.54,443,388.34,433.1,392c-14.7,5.44-29.44,10.68-44.27,15.51s-29.69,9.23-44.85,13.14q-6.13,1.6-12.27,3.12c.92-3.75,1.73-7.53,2.39-11.37a168.69,168.69,0,0,0,2.56-26.88q6.72-2.26,13.42-4.6c13.17-4.66,26.24-9.56,39.25-14.6,52-20.24,102.75-42.8,154.45-61.92s104.44-34.95,158.82-41.29c13.58-1.52,27.23-2.57,40.91-3,13.68-.29,27.39,0,41.08.91a385.24,385.24,0,0,1,40.91,5.37c6.73,1.46,13.55,2.74,20.21,4.63,6.78,1.54,13.33,3.79,20.05,5.7-6.3-3-12.61-6-19.15-8.48-6.47-2.7-13.16-4.76-19.81-7a346,346,0,0,0-41.09-9.59,383.71,383.71,0,0,0-42.12-4.19c-14.12-.51-28.26-.27-42.38.59s-28.15,2.6-42.12,4.8-27.77,5.19-41.49,8.45-27.23,7.25-40.68,11.38-26.67,8.86-39.84,13.68c-52.62,19.5-103,43.36-153.59,66.06-15.69,7.07-31.42,14-47.25,20.73a123.13,123.13,0,0,0-12-44.92c-4.81-9.89-11.09-18.75-20.47-24.92-11.5-7.56-23.14-5.92-31,5.21a67,67,0,0,0-9,18.36c-7.87,24.92-7.37,49.83.58,74.32q-17.65,6.16-35.63,11.59c6.88-1.06,13.77-2.18,20.62-3.52,5.56-1,11.06-2.27,16.58-3.5l.15.42c3.6,9.82,7.67,19.46,11.81,29.08a503.17,503.17,0,0,1-71.44,7.58,400.8,400.8,0,0,1-46.16-1.28,322.51,322.51,0,0,1-45.31-7c-14.72-3.5-29-8.46-41.52-15.83a75.44,75.44,0,0,1-16.69-13,55.94,55.94,0,0,1-11.14-17,57.56,57.56,0,0,1-4-20,61.8,61.8,0,0,1,3.28-20.46,60.42,60.42,0,0,1,9.9-18.27A66.26,66.26,0,0,1,62,322.27a74.22,74.22,0,0,1,8.54-6.44C82.62,308,97.21,303.08,112,299.71a201.21,201.21,0,0,1,45.39-4.51A159.22,159.22,0,0,1,180,297.12a112.21,112.21,0,0,1,21.77,5.59,74.86,74.86,0,0,1,19.37,10.43,55.41,55.41,0,0,1,14.29,16.14,47.23,47.23,0,0,1,4.36,9.79,29.77,29.77,0,0,1,1.26,10.19c-.33,6.79-3.63,13.24-8.68,18.42s-11.57,9.2-18.46,12.3a95.69,95.69,0,0,1-21.9,6.57,90.2,90.2,0,0,1-23,1.06c-7.66-.58-15.33-2.11-22-5.75a28.82,28.82,0,0,1-8.77-7.06,26,26,0,0,1-5-10.17,24.69,24.69,0,0,1-.18-11.44,17.66,17.66,0,0,1,6.16-9.69,18.06,18.06,0,0,0-6.92,9.47,25.74,25.74,0,0,0-.52,12,27.82,27.82,0,0,0,4.72,11.18,31.31,31.31,0,0,0,9.06,8.23c7,4.34,15.1,6.33,23.06,7.35a95,95,0,0,0,24.18.1,96.88,96.88,0,0,0,23.61-5.88c7.58-3.05,15-7.08,21.2-13a41.17,41.17,0,0,0,8-10.28,34,34,0,0,0,3.91-12.75,38.44,38.44,0,0,0-1-13.22,56.29,56.29,0,0,0-4.72-12c-.45-1-1-1.86-1.57-2.78s-1.07-1.85-1.68-2.73c-1.26-1.72-2.44-3.52-3.86-5.11a66.62,66.62,0,0,0-9.06-9,85.43,85.43,0,0,0-21.7-12.67,123.54,123.54,0,0,0-23.74-7,171.37,171.37,0,0,0-24.33-2.88,202.89,202.89,0,0,0-48.65,3.5c-4,.79-8,1.73-12,2.79s-7.9,2.23-11.81,3.61A116.43,116.43,0,0,0,62.5,303.14,89.32,89.32,0,0,0,52,310.68,81.53,81.53,0,0,0,42.68,320,76.54,76.54,0,0,0,25,368.68a74.17,74.17,0,0,0,4.84,26.15,73,73,0,0,0,14.24,22.55,92.67,92.67,0,0,0,20.2,16.31c14.6,8.88,30.39,14.47,46.24,18.51a312.21,312.21,0,0,0,48,7.88,419.75,419.75,0,0,0,48.34,1.58,524.8,524.8,0,0,0,76.35-7.88,11.46,11.46,0,0,1-.94,1.6c-7.73,11-15.41,22.16-22.48,33.63a209.92,209.92,0,0,0-12.57,23.4c-14.95,2.65-30,4.71-45.13,6-36.21,3.32-73,2.13-109.12-4.87,35.14,11.15,72.55,15,109.63,14.27,13.18-.34,26.35-1.26,39.46-2.67a143.58,143.58,0,0,0-5.74,20.7c-2.93,15-3.48,29.61-.77,43.76q-4.43.8-8.87,1.56a326.85,326.85,0,0,1-66.23,4.09c-22-1.22-44-5.34-64.63-13.12a138,138,0,0,1-29.18-15.18A100.2,100.2,0,0,1,43,544.27,82.5,82.5,0,0,1,29,514.42a69,69,0,0,1,0-33.32c-3.88,10.69-4.59,22.5-2.82,33.88a86.13,86.13,0,0,0,12.39,32.28,101.74,101.74,0,0,0,23.64,25.66,146.43,146.43,0,0,0,30,17.9c21.36,9.31,44.23,14.61,67.33,17,2.89.26,5.78.41,8.68.62s5.79.45,8.69.42c5.79.06,11.6.22,17.37-.08,2.89-.12,5.79-.15,8.68-.33l8.64-.64,4.32-.33,4.3-.48,8.6-1c3.65-.46,7.28-1,10.91-1.55a93.09,93.09,0,0,0,7.58,15.67c10.12,16.72,25.51,29.77,43.2,38a551,551,0,0,1-203.84,7.1c74.43,18.67,154,18.88,229.59,1.15a97.67,97.67,0,0,0,43.54-1.61c5.93-1.63,11.68-3.86,17.68-5.87,3.77,8.36,7.49,16.75,11.33,25.08,6,13,11.57,26.05,12.12,40.67,1.24,32.59-19.29,46.15-49,45.51-3.32-.07-6.59-2-9.89-3.12l.46-1.44c1.14-.25,2.29-.45,3.42-.74a28.69,28.69,0,0,0,21.26-26.25,29.46,29.46,0,0,0-19-29.22,28.14,28.14,0,0,0-32.34,9.53c-7.67,10-7.8,23.33-.36,35.76,13.41,22.4,39.88,30.89,64.28,20.78,18.36-7.61,29.71-20.77,32.43-40.71,1.78-13.06-.71-25.64-5.74-37.61-5.8-13.84-12.22-27.42-18.42-41.09-.8-1.76-1.39-3.09.64-4.63A61.75,61.75,0,0,0,400.82,639c18.5-7.39,36.69-15.34,54.78-23.27,19.18-8.43,38.22-16.9,57.44-24.69s38.5-15.23,58.18-21.06c2.44-.82,4.91-1.46,7.38-2.15l7.4-2.06c4.91-1.47,9.91-2.52,14.88-3.68l7.46-1.72,7.63-1.54c5.09-1,10.2-2,15.3-3q30.6-5.81,61.41-9.63c41-5,82.49-6.78,123.21-1.94,2.54.33,5.1.55,7.62,1l7.56,1.26c2.51.46,5.07.75,7.55,1.35l7.48,1.64a125.53,125.53,0,0,1,28.35,9.14,62.88,62.88,0,0,1,12.06,7.58c.91.74,1.77,1.53,2.63,2.31s1.69,1.6,2.43,2.5l1.15,1.3c.38.44.67.91,1,1.36.64.93,1.38,1.8,2,2.77a41.63,41.63,0,0,1,5,12.82,47.46,47.46,0,0,1,.73,14.12,46.68,46.68,0,0,1-3.41,13.9,40.87,40.87,0,0,1-7.52,12.16,43.47,43.47,0,0,1-5.18,5,40.18,40.18,0,0,1-6.12,3.73,18.62,18.62,0,0,1-3.3,1.44c-1.15.37-2.27.84-3.44,1.16l-3.57.78a35.3,35.3,0,0,1-3.65.45,48,48,0,0,1-28.77-7,46.39,46.39,0,0,1-11.6-9.92,43.29,43.29,0,0,1-7.34-13.62A41.91,41.91,0,0,0,823.69,626a48.61,48.61,0,0,0,11.19,11.45l3.35,2.28,3.56,1.94a31.59,31.59,0,0,0,3.7,1.69,29.36,29.36,0,0,0,3.82,1.43,49,49,0,0,0,16.2,2.56,40.76,40.76,0,0,0,4.17-.19l4.16-.58c1.38-.26,2.72-.7,4.09-1.06a23.58,23.58,0,0,0,4-1.44,46.78,46.78,0,0,0,7.53-4,50.62,50.62,0,0,0,6.53-5.47,48.82,48.82,0,0,0,9.83-13.81,55.64,55.64,0,0,0,5.08-16.2,32.15,32.15,0,0,0,.48-4.25,32.93,32.93,0,0,0,.17-4.29c0-1.43,0-2.87-.12-4.31l-.53-4.3a52.3,52.3,0,0,0-5.6-16.56c-5.85-10.48-15.15-18-25-23.47A128.43,128.43,0,0,0,849.45,536l-7.8-2c-2.59-.72-5.24-1.12-7.85-1.7l-7.88-1.6c-2.63-.53-5.28-.86-7.92-1.3l-7.93-1.24c-2.65-.38-5.3-.62-8-.94l-8-.9c-2.66-.25-5.32-.41-8-.62l-8-.56c-2.66-.13-5.32-.19-8-.28l-8-.26-8,0a599.5,599.5,0,0,0-63.6,3.48c-21.08,2.2-42,5.38-62.8,9.07q-7.8,1.37-15.56,2.93l-7.77,1.54-7.85,1.77c-5.23,1.2-10.49,2.29-15.62,3.8l-7.74,2.12c-2.58.72-5.17,1.37-7.7,2.23-40.89,12.52-79.46,30.11-117.49,47.56-11.95,5.47-23.87,11-35.81,16.29,5.54-18.37,6-36.71-1.74-54.48q8.5-2.42,17-4.94,16.41-4.87,32.7-10.48c5.43-1.84,10.84-3.82,16.24-5.8l8.07-3.08,7.94-3.12c21.09-8.39,42-16.94,63.06-25.15q11.09-4.39,22.22-8.6c-9.8,6.56-17.27,17.39-17.85,28.35-.56,10.48,6.19,18.28,16.7,17.84a36.77,36.77,0,0,0,15.23-4.49c16.16-8.66,22.47-24.93,17.2-42.38q-1.47-4.87-2.9-9.75c4.22-1.5,8.44-3,12.68-4.43,21.21-7.32,42.66-13.75,64.35-19,5.42-1.33,10.88-2.45,16.33-3.68,5.47-1,10.94-2.18,16.43-3.13s11-2,16.5-2.68l8.27-1.17,1.5-.17-3.1,20.33-1,6.26c-1.54-.76-2.42-1.18-3.28-1.63-15.79-8.3-40.65-.71-49.16,15-5,9.23-2.24,19.17,7.44,23.28a36.76,36.76,0,0,0,15.68,2.48c18.31-.89,31-12.89,33.71-30.92q2.68-17.72,5.4-35.44l1.06-.12c5.07-.59,10.15-1,15.24-1.37,13,12,15.22,26.69,9,43.33-2.28,6.06-5.65,11.71-8.52,17.54l.62,1.08c1.19-.83,2.69-1.43,3.51-2.54,5.56-7.57,10.13-16.28,12.21-25.49,2.45-10.84.39-24.34-5.49-34.56,2.25-.1,4.51-.2,6.77-.27,1.87-.07,3.74-.07,5.62-.07,2.95,8.53,2.25,17.93-1.61,28-2.3,6-5.7,11.68-8.59,17.51l.61,1.08c1.19-.83,2.7-1.42,3.52-2.53,9.76-13.18,15-27.55,12.33-44.12,1.6,0,3.2,0,4.8,0l8.33.29,4.17.13,4.16.29A306.08,306.08,0,0,1,881.29,464a149,149,0,0,1,30.5,12.53,99.35,99.35,0,0,1,25.86,20.1,57.41,57.41,0,0,1,14.38,29,56.68,56.68,0,0,1,.31,16.62c-.18,1.39-.44,2.77-.66,4.16a13.35,13.35,0,0,1-1.16,3.93,4.08,4.08,0,0,1-3,2.41,2.89,2.89,0,0,1-3.36-1.73,2.48,2.48,0,0,0,1.27,1.67,3.92,3.92,0,0,0,2.13.46,4.68,4.68,0,0,0,3.62-2.4,14,14,0,0,0,1.59-4.07c.34-1.39.72-2.77,1-4.17a58.9,58.9,0,0,0,1.1-17.23c-1-11.62-5.93-22.86-13.15-32.07s-16.35-16.87-26.15-23.12a157.42,157.42,0,0,0-31.42-15.13,313.52,313.52,0,0,0-67.45-14.83c-7-.79-13.93-1.3-20.91-1.62,4.48-13.52,3.87-26.92-2.85-39.69a158.22,158.22,0,0,0-13.8-21.45q3.21-.15,6.42-.26L789,377h10.06c2.24,0,4.46.19,6.69.28s4.47.16,6.68.44l6.66.68c2.22.22,4.41.66,6.62,1,4.44.57,8.75,1.72,13.14,2.59a179.85,179.85,0,0,1,25.55,8.3c2.11.8,4.12,1.82,6.18,2.73s4.12,1.85,6.11,2.92l6,3.1,5.93,3.34c2,1.08,3.93,2.29,5.86,3.49s3.9,2.36,5.8,3.62c3.79,2.54,7.63,5,11.32,7.73,7.55,5.2,14.76,10.89,22.06,16.49-13.1-12.9-26.88-25.26-42.18-35.85l-5.76-3.94-6-3.66c-2-1.25-4-2.37-6.09-3.47s-4.08-2.3-6.21-3.29a188.29,188.29,0,0,0-26.14-10.63,203.29,203.29,0,0,0-55.82-8.32c-4.66-.1-9.31-.2-14-.09l-1.95,0c-3.61-5.88-5.86-12.2-4.91-19.92.1-.84-1.53-2.36-2.62-2.69-.67-.2-2.24,1.06-2.7,2a15.85,15.85,0,0,0-.85,4.45L756,364.77c-4.12.16-8.24.44-12.36.65-4.64.35-9.29.71-13.92,1.16-37.1,3.54-73.71,11.06-109.48,21-3.65,1-7.29,2.07-10.93,3.15a176.36,176.36,0,0,0-20.11-11.44c-9.65-4.73-18.39-9.78-22.23-20.49,1.51-.58,3-1.18,4.52-1.76,14.66-5.56,29.36-11,44.17-16,7.38-2.61,14.82-5,22.25-7.36,3.71-1.22,7.47-2.26,11.2-3.4s7.47-2.28,11.23-3.26L671.64,324c3.76-1,7.56-1.85,11.34-2.78,7.55-1.93,15.19-3.34,22.8-5,3.82-.73,7.65-1.33,11.48-2l5.74-1c1.92-.29,3.84-.52,5.77-.78L740.31,311l11.58-1.09c1.93-.17,3.86-.4,5.8-.52l5.81-.29c3.87-.16,7.75-.45,11.62-.51,7.74,0,15.51-.2,23.25.36l5.81.28c1.94.08,3.88.18,5.8.42l11.57,1.18,2.89.3,2.87.46,5.75.91,5.75.91c1,.16,1.92.28,2.87.47l2.85.61,11.4,2.42c1.91.36,3.78.88,5.65,1.4l5.62,1.54,5.63,1.54c.94.26,1.88.5,2.81.79l2.76.93,11.07,3.74A171.93,171.93,0,0,1,931,347.38a102.88,102.88,0,0,1,17.4,15.16,79.25,79.25,0,0,1,12.83,19.13,43.29,43.29,0,0,1,3.71,22.48,26.66,26.66,0,0,1-3.63,10.9,18.35,18.35,0,0,1-8.77,7.46,18.75,18.75,0,0,0,9.44-7,27.71,27.71,0,0,0,4.46-11.12A41.51,41.51,0,0,0,966.72,392.32ZM473.29,426.64l-.77-7.19c9.08,4.44,17.13,8.59,25.35,12.36l.42.21q-11.71,4.83-23.39,9.59Q474.1,434.13,473.29,426.64Zm37.42.26c-7.61-5.4-16-11.17-24-17.34a48.74,48.74,0,0,1-12.24-13.61l9.39-3.77,5.16-2.1c14,9.3,23.15,22.59,24.41,35.71ZM348.85,439.14c15.36-4,30.74-8.73,45.85-13.68,23.71-7.9,47-16.61,70.12-25.7l4.71,44-4.88,2c-16.93,6.84-33.94,13.29-51.08,19.14l-12.92,4.27-13.17,4.28-26.14,8.72c-15.19,5-30.31,9.94-45.57,14.27q-2.77-6-5.54-12a6.56,6.56,0,0,1,.09-6.47,282.43,282.43,0,0,0,14.81-32.79Q337,442.29,348.85,439.14Zm-72.46-71.07c2.13-10.89,6.37-20.87,14.4-28.72a37,37,0,0,1,10.52-7c4.28-1.94,6.91-.74,9.62,3.19,5.73,8.31,7.57,17.83,7.9,27.62a120.35,120.35,0,0,1-.69,17.5q-21,8.59-42.39,16.41A85.72,85.72,0,0,1,276.39,368.06Zm.46,35.09c11.19-2.79,22.31-5.89,33.39-9.12,2-.61,4-1.24,6-1.86a114.75,114.75,0,0,1-16.6,38.91l-1.2.25q-5.59,1.16-11.2,2.22A145.05,145.05,0,0,1,276.85,403.15ZM302.79,492l3.2,7.14q-4.36,1.17-8.72,2.3Q300,496.75,302.79,492Zm9.46,21.09,8.08,18c-1.15.88-2.24,1.73-3.34,2.55-14.8,11.12-24.4,25.35-27.26,43.23-4.66,1.29-9.31,2.59-14,3.74l-8.13,2.07L261,584.25a61.17,61.17,0,0,1,7.41-32.61c6-11.19,12.4-22.19,18.92-33.27Q299.84,516,312.26,513.09Zm31.11,44.31a46,46,0,0,1,14.68-.91l-1.05.3q-6.13,1.79-12.27,3.61Zm-77.55,49.18c-.81-2.14-1.52-4.27-2.13-6.41,8.63-1.77,17.21-3.74,25.73-5.87,2.1,14.16,10.4,25.1,24.2,32.86a65.55,65.55,0,0,0,30,8.1C321,627.59,312.44,611.11,314,588.69c0-.32.06-.63.09-.94l15.28-4.37c4.25-1.23,8.52-2.42,12.79-3.61l24.53,54.88c-11.1,4.32-22.29,8.35-33.61,12q-10.47,3.33-21.09,6.21C288.64,644.75,273,625.49,265.82,606.59Zm58.82-40.11a41.17,41.17,0,0,1,8.72-5.86c.55,1.05,1,1.9,1.44,2.77C331.4,564.41,328,565.43,324.64,566.48ZM397.79,608a53.75,53.75,0,0,1-3.21,15.16q-9,3.86-18,7.54L352.23,577l9.69-2.65q11.13-3,22.3-6.06C394.28,577.63,399,591.51,397.79,608ZM422,537.78c-7.33,2.27-14.7,4.45-22.09,6.61-16.26-17.68-43.65-26.12-66.43-19-2.91.91-4.4.88-5.83-2.45-1.77-4.1-3.59-8.19-5.42-12.26,14.9-3.7,29.63-7.94,44.2-12.34l52.82-16.08c17.75-5.63,35.14-12.11,52.37-18.79l1.82,17,.67,6.3c-1.68-.35-2.64-.52-3.59-.74-17.39-4-39.48,9.69-43.7,27.06-2.23,9.18,1.78,17.3,10.2,19.92Q429.57,535.46,422,537.78Zm126.63-47.19c-21.22,8.19-42.24,16.68-63.27,25l-7.86,3.12-4,1.55c5.58-7.08,8.08-16.32,7-26.63q-1.75-16.15-3.47-32.3c12.76-5,25.41-10.23,38-15.39,4.75,7.4,6.35,16.49,5.23,27-.68,6.44-2.53,12.75-3.84,19.12l.87.89c.94-1.11,2.25-2.06,2.76-3.34,6.09-15.28,7.48-30.56.6-45.94l2.18-.89c17-7,33.88-13.82,50.92-20.17l5.87-2.16,15.9,53q-7.45,2.58-14.86,5.26Q564.57,484.45,548.66,490.59Zm52.91,2.95c-1.72,0-2.69,0-3.67-.07a27.25,27.25,0,0,0-3.46.09c2.14-.78,4.28-1.57,6.43-2.35ZM763,438.46a27.84,27.84,0,0,1-6.28-8.27c-1.67-3.65-2.1-7.72-2.49-11.71-.07-.68-.13-1.38-.13-2.08,7.52,6.51,14.15,12.49,21,18.15a50.64,50.64,0,0,1,3.89,3.57Q771,438.13,763,438.46Zm28-2.69c-6.54-7.91-14-16.56-21.05-25.59a48.9,48.9,0,0,1-10.3-27.52c-.08-1.3,0-2.61,0-4.06l1.53-.12C784.09,392.85,796,417.11,791.05,435.76Zm-59.59-54.11q11.15-1.53,22.36-2.56l-9.23,60.45c-1.85.14-3.7.28-5.55.45l-8.59.92c-5.74.54-11.42,1.45-17.13,2.2S702,445,696.31,446c-5.63,1.15-11.29,2.2-16.89,3.45-22.45,4.95-44.57,11.11-66.33,18.13-4.06,1.29-8.1,2.63-12.13,4-2.14-7.34-4.28-14.68-6.48-22-2.47-8.24-5-16.46-7.7-24.64-.7-2.12-1.42-4.23-2.15-6.34l1.94-.71,12.84-4.48,12.91-4.21,4.74-1.46c1.14,1.08,2.25,2.19,3.28,3.38a43.25,43.25,0,0,1,6.22,9.12c.6,1.2,2.43,8.84,3.13,9.17,1.22.57.88,1.73,1.75,2.76a3.16,3.16,0,0,0,1.4,1.12c1.1.32,1.9.93,2.69.1-.74-10.77-4-20.31-9.93-28.27q26-7.79,52.38-13.79C695.68,387.4,713.51,384.11,731.46,381.65ZM588.73,392.12c2.53.76,5,1.68,7.47,2.68q-8.9,2.84-17.71,5.9c-1-3.17-2-6.35-2.81-9.58C575.42,390.1,587.73,391.82,588.73,392.12Zm-25.95-27.87,11.4,38c-2.34.83-4.69,1.64-7,2.48-16.27,6-32.31,12.36-48.25,18.83A48.21,48.21,0,0,0,506,392.69c-2.14-2.34-4.39-4.59-6.71-6.79,20.83-8.47,41.61-16.91,62.46-25A33.44,33.44,0,0,0,562.78,364.24Z"/></svg>